<svg width="27" height="16" viewBox="0 0 27 16" fill="none" xmlns="http://www.w3.org/2000/svg">
<path d="M18.9 0H8.1C5.95175 0 3.89148 0.842855 2.37244 2.34315C0.85339 3.84344 0 5.87827 0 8C0 10.1217 0.85339 12.1566 2.37244 13.6569C3.89148 15.1571 5.95175 16 8.1 16H18.9C21.0483 16 23.1085 15.1571 24.6276 13.6569C26.1466 12.1566 27 10.1217 27 8C27 5.87827 26.1466 3.84344 24.6276 2.34315C23.1085 0.842855 21.0483 0 18.9 0ZM18.9 14.2222H8.1C6.42914 14.2222 4.82671 13.5667 3.64523 12.3998C2.46375 11.2329 1.8 9.65024 1.8 8C1.8 6.34976 2.46375 4.76712 3.64523 3.60022C4.82671 2.43333 6.42914 1.77778 8.1 1.77778H18.9C20.5709 1.77778 22.1733 2.43333 23.3548 3.60022C24.5363 4.76712 25.2 6.34976 25.2 8C25.2 9.65024 24.5363 11.2329 23.3548 12.3998C22.1733 13.5667 20.5709 14.2222 18.9 14.2222ZM18.9 3.55556C18.01 3.55556 17.14 3.81622 16.3999 4.30458C15.6599 4.79294 15.0831 5.48707 14.7425 6.29919C14.4019 7.1113 14.3128 8.00493 14.4865 8.86707C14.6601 9.72921 15.0887 10.5211 15.718 11.1427C16.3474 11.7643 17.1492 12.1876 18.0221 12.359C18.895 12.5305 19.7998 12.4425 20.6221 12.1061C21.4443 11.7697 22.1471 11.2001 22.6416 10.4692C23.1361 9.73832 23.4 8.87903 23.4 8C23.4 6.82126 22.9259 5.6908 22.082 4.8573C21.2381 4.02381 20.0935 3.55556 18.9 3.55556ZM18.9 10.6667C18.366 10.6667 17.844 10.5103 17.4 10.2173C16.9559 9.92424 16.6099 9.50776 16.4055 9.02049C16.2012 8.53322 16.1477 7.99704 16.2519 7.47976C16.3561 6.96248 16.6132 6.48732 16.9908 6.11438C17.3684 5.74144 17.8495 5.48747 18.3733 5.38457C18.897 5.28168 19.4399 5.33449 19.9332 5.53632C20.4266 5.73815 20.8483 6.07995 21.145 6.51848C21.4416 6.95701 21.6 7.47258 21.6 8C21.6 8.70724 21.3155 9.38552 20.8092 9.88562C20.3028 10.3857 19.6161 10.6667 18.9 10.6667Z" fill="#333333"/>
</svg>
