<svg width="12" height="12" viewBox="0 0 12 12" fill="none" xmlns="http://www.w3.org/2000/svg">
<path d="M11 0.923077H9.5V0.461538C9.5 0.339131 9.44732 0.221737 9.35355 0.135181C9.25979 0.0486262 9.13261 0 9 0C8.86739 0 8.74021 0.0486262 8.64645 0.135181C8.55268 0.221737 8.5 0.339131 8.5 0.461538V0.923077H3.5V0.461538C3.5 0.339131 3.44732 0.221737 3.35355 0.135181C3.25979 0.0486262 3.13261 0 3 0C2.86739 0 2.74021 0.0486262 2.64645 0.135181C2.55268 0.221737 2.5 0.339131 2.5 0.461538V0.923077H1C0.734784 0.923077 0.48043 1.02033 0.292893 1.19344C0.105357 1.36655 0 1.60134 0 1.84615V11.0769C0 11.3217 0.105357 11.5565 0.292893 11.7296C0.48043 11.9027 0.734784 12 1 12H11C11.2652 12 11.5196 11.9027 11.7071 11.7296C11.8946 11.5565 12 11.3217 12 11.0769V1.84615C12 1.60134 11.8946 1.36655 11.7071 1.19344C11.5196 1.02033 11.2652 0.923077 11 0.923077ZM3.25 9.69231C3.10166 9.69231 2.95666 9.6517 2.83332 9.57563C2.70999 9.49956 2.61386 9.39144 2.55709 9.26493C2.50032 9.13843 2.48547 8.99923 2.51441 8.86494C2.54335 8.73064 2.61478 8.60729 2.71967 8.51046C2.82456 8.41364 2.9582 8.34771 3.10368 8.32099C3.24917 8.29428 3.39997 8.30799 3.53701 8.36039C3.67406 8.41279 3.79119 8.50152 3.8736 8.61537C3.95601 8.72922 4 8.86307 4 9C4 9.18361 3.92098 9.3597 3.78033 9.48954C3.63968 9.61937 3.44891 9.69231 3.25 9.69231ZM6 9.69231C5.85166 9.69231 5.70666 9.6517 5.58332 9.57563C5.45999 9.49956 5.36386 9.39144 5.30709 9.26493C5.25032 9.13843 5.23547 8.99923 5.26441 8.86494C5.29335 8.73064 5.36478 8.60729 5.46967 8.51046C5.57456 8.41364 5.7082 8.34771 5.85368 8.32099C5.99917 8.29428 6.14997 8.30799 6.28701 8.36039C6.42406 8.41279 6.54119 8.50152 6.6236 8.61537C6.70601 8.72922 6.75 8.86307 6.75 9C6.75 9.18361 6.67098 9.3597 6.53033 9.48954C6.38968 9.61937 6.19891 9.69231 6 9.69231ZM6 7.38462C5.85166 7.38462 5.70666 7.34401 5.58332 7.26794C5.45999 7.19187 5.36386 7.08374 5.30709 6.95724C5.25032 6.83074 5.23547 6.69154 5.26441 6.55725C5.29335 6.42295 5.36478 6.29959 5.46967 6.20277C5.57456 6.10595 5.7082 6.04002 5.85368 6.0133C5.99917 5.98659 6.14997 6.0003 6.28701 6.0527C6.42406 6.1051 6.54119 6.19383 6.6236 6.30768C6.70601 6.42153 6.75 6.55538 6.75 6.69231C6.75 6.87592 6.67098 7.05201 6.53033 7.18184C6.38968 7.31168 6.19891 7.38462 6 7.38462ZM8.75 9.69231C8.60166 9.69231 8.45666 9.6517 8.33332 9.57563C8.20999 9.49956 8.11386 9.39144 8.05709 9.26493C8.00033 9.13843 7.98547 8.99923 8.01441 8.86494C8.04335 8.73064 8.11478 8.60729 8.21967 8.51046C8.32456 8.41364 8.4582 8.34771 8.60368 8.32099C8.74917 8.29428 8.89997 8.30799 9.03701 8.36039C9.17406 8.41279 9.29119 8.50152 9.3736 8.61537C9.45601 8.72922 9.5 8.86307 9.5 9C9.5 9.18361 9.42098 9.3597 9.28033 9.48954C9.13968 9.61937 8.94891 9.69231 8.75 9.69231ZM8.75 7.38462C8.60166 7.38462 8.45666 7.34401 8.33332 7.26794C8.20999 7.19187 8.11386 7.08374 8.05709 6.95724C8.00033 6.83074 7.98547 6.69154 8.01441 6.55725C8.04335 6.42295 8.11478 6.29959 8.21967 6.20277C8.32456 6.10595 8.4582 6.04002 8.60368 6.0133C8.74917 5.98659 8.89997 6.0003 9.03701 6.0527C9.17406 6.1051 9.29119 6.19383 9.3736 6.30768C9.45601 6.42153 9.5 6.55538 9.5 6.69231C9.5 6.87592 9.42098 7.05201 9.28033 7.18184C9.13968 7.31168 8.94891 7.38462 8.75 7.38462ZM11 3.69231H1V1.84615H2.5V2.30769C2.5 2.4301 2.55268 2.54749 2.64645 2.63405C2.74021 2.7206 2.86739 2.76923 3 2.76923C3.13261 2.76923 3.25979 2.7206 3.35355 2.63405C3.44732 2.54749 3.5 2.4301 3.5 2.30769V1.84615H8.5V2.30769C8.5 2.4301 8.55268 2.54749 8.64645 2.63405C8.74021 2.7206 8.86739 2.76923 9 2.76923C9.13261 2.76923 9.25979 2.7206 9.35355 2.63405C9.44732 2.54749 9.5 2.4301 9.5 2.30769V1.84615H11V3.69231Z" fill="black"/>
</svg>
