<svg width="27" height="16" viewBox="0 0 27 16" fill="none" xmlns="http://www.w3.org/2000/svg">
<path d="M8.1 0H18.9C21.0483 0 23.1085 0.842855 24.6276 2.34315C26.1466 3.84344 27 5.87827 27 8C27 10.1217 26.1466 12.1566 24.6276 13.6569C23.1085 15.1571 21.0483 16 18.9 16H8.1C5.95175 16 3.89148 15.1571 2.37244 13.6569C0.853392 12.1566 0 10.1217 0 8C0 5.87827 0.853392 3.84344 2.37244 2.34315C3.89148 0.842855 5.95175 0 8.1 0ZM8.1 14.2222H18.9C20.5709 14.2222 22.1733 13.5667 23.3548 12.3998C24.5363 11.2329 25.2 9.65024 25.2 8C25.2 6.34976 24.5363 4.76712 23.3548 3.60022C22.1733 2.43333 20.5709 1.77778 18.9 1.77778H8.1C6.42914 1.77778 4.82671 2.43333 3.64523 3.60022C2.46375 4.76712 1.8 6.34976 1.8 8C1.8 9.65024 2.46375 11.2329 3.64523 12.3998C4.82671 13.5667 6.42914 14.2222 8.1 14.2222ZM8.1 3.55556C8.99002 3.55556 9.86004 3.81622 10.6001 4.30458C11.3401 4.79294 11.9169 5.48707 12.2575 6.29919C12.5981 7.1113 12.6872 8.00493 12.5135 8.86707C12.3399 9.72921 11.9113 10.5211 11.282 11.1427C10.6526 11.7643 9.85082 12.1876 8.97791 12.359C8.10499 12.5305 7.20019 12.4425 6.37792 12.1061C5.55566 11.7697 4.85285 11.2001 4.35839 10.4692C3.86392 9.73832 3.6 8.87903 3.6 8C3.6 6.82126 4.07411 5.6908 4.91802 4.8573C5.76193 4.02381 6.90653 3.55556 8.1 3.55556ZM8.1 10.6667C8.63401 10.6667 9.15603 10.5103 9.60004 10.2173C10.0441 9.92424 10.3901 9.50776 10.5945 9.02049C10.7988 8.53322 10.8523 7.99704 10.7481 7.47976C10.6439 6.96248 10.3868 6.48732 10.0092 6.11438C9.63159 5.74144 9.15049 5.48747 8.62675 5.38457C8.103 5.28168 7.56012 5.33449 7.06676 5.53632C6.57339 5.73815 6.15171 6.07995 5.85503 6.51848C5.55835 6.95701 5.4 7.47258 5.4 8C5.4 8.70724 5.68446 9.38552 6.19081 9.88562C6.69716 10.3857 7.38392 10.6667 8.1 10.6667Z" fill="#333333"/>
</svg>
