<svg width="10" height="12" viewBox="0 0 10 12" fill="none" xmlns="http://www.w3.org/2000/svg">
<path d="M9.59952 2.71722V10.4999C9.59952 11.3283 8.92798 11.9998 8.09959 11.9998H1.49992C0.671539 11.9998 0 11.3283 0 10.4999V1.50051C0 0.672132 0.671539 0.000601388 1.49992 0.000601388H6.88287C6.96251 -0.00444998 7.04541 0.0221038 7.11178 0.0884639L9.51166 2.48831C9.57802 2.55467 9.60457 2.63757 9.59952 2.71722ZM6.59967 0.600564H1.49992C1.00289 0.600564 0.59997 1.00348 0.59997 1.50051V10.4999C0.59997 10.997 1.00289 11.3999 1.49992 11.3999H8.09959C8.59663 11.3999 8.99955 10.997 8.99955 10.4999V3.00041H6.89965C6.73398 3.00041 6.59967 2.86611 6.59967 2.70043V0.600564ZM7.19964 1.0248V2.40045H8.57531L7.19964 1.0248ZM4.79976 5.22394V9.29942C4.79976 9.46509 4.66545 9.5994 4.49977 9.5994C4.3341 9.5994 4.19979 9.46509 4.19979 9.29942V5.22394L2.91199 6.51172C2.79483 6.62887 2.60489 6.62887 2.48774 6.51172C2.37059 6.39457 2.37059 6.20464 2.48774 6.08749L4.28765 4.2876C4.4048 4.17045 4.59474 4.17045 4.7119 4.2876L6.51181 6.08749C6.62896 6.20464 6.62896 6.39457 6.51181 6.51172C6.39465 6.62887 6.20471 6.62887 6.08756 6.51172L4.79976 5.22394Z" fill="#333333"/>
</svg>
